<?xml version="1.0" encoding="iso-8859-1"?>
<!-- Generator: Adobe Illustrator 21.1.0, SVG Export Plug-In . SVG Version: 6.00 Build 0)  -->
<svg version="1.1" id="Layer_1" xmlns="http://www.w3.org/2000/svg" xmlns:xlink="http://www.w3.org/1999/xlink" x="0px" y="0px"
	 viewBox="0 0 360 360" style="enable-background:new 0 0 360 360;" xml:space="preserve">
<g>
	<path style="fill:#FFF96D;" d="M89.473,200.548l-3.383-9.965c0,0-6.811-8.456-6.856-8.639c-0.046-0.183-1.28-2.286-1.28-2.286
		s-4.068,0.388-4.205,0.422c-0.137,0.034-6.171,3.463-6.171,3.463l-8.365,6.559c0,0-4.251,7.336-4.48,7.428
		c-0.228,0.091-0.732-0.549-0.503-2.378c0.228-1.828,1.234-8.045,1.234-8.045s0.96-2.239,0.686-8.182
		c-0.274-5.942,0.823-7.451,0.732-7.725c-0.091-0.274-1.646-8.914-1.646-8.914l-2.103-1.417l-2.148-2.652l-2.879-4.891l-3.885-4.845
		c0,0-2.24-2.697-2.606-3.565c-0.366-0.869-1.554-2.925-1.417-2.925c0.137,0,2.285,0.045,3.428,0c1.143-0.046,3.2-0.777,3.657-0.823
		c0.457-0.045,7.588,0.412,8.091,0.64c0.503,0.228,4.983,2.24,5.577,2.423s5.988,2.925,7.177,4.571
		c1.188,1.646,3.474,3.474,3.657,3.839c0.183,0.366,3.749,5.211,4.068,5.44c0.32,0.228,1.874,1.463,1.92,1.188
		c0.045-0.274-0.046-4.571-0.046-4.708c0-0.137-0.869-4.799-0.731-4.708c0.137,0.091,5.394,5.119,5.394,5.119
		s2.057-2.651,2.057-3.062c0-0.412-1.783-8.914-1.783-8.914s-5.668-5.668-4.937-5.485c0.732,0.183,4.663,1.508,5.165,1.965
		s5.348,3.566,5.348,3.566l2.24-1.6v-3.935l0.64-3.927l-0.229-9.645l1.051-0.274c0,0,1.829,2.697,1.92,3.017
		c0.091,0.32,4.114,4.891,4.114,4.891s1.783,0.274,1.965,0.32c0.183,0.045,3.291,0.137,3.291,0.137l0.229-3.108
		c0,0,1.371,0.32,1.463,0.046c0.091-0.274,0-5.623,0-5.623l-0.32-4.708l-0.594-3.611c0,0,3.291,3.154,3.52,3.291
		c0.229,0.137,5.805,5.531,5.805,5.531s0.823,1.92,1.005,1.783c0.183-0.137,1.692-3.2,1.692-3.2l2.605,3.245l0.777-2.743
		c0,0,0.457-1.874,0.595-2.194l0.64-3.885c0,0,3.749,5.257,3.977,5.851c0.228,0.594,1.874,1.463,2.24,1.919
		c0.366,0.457,3.154,1.965,3.154,1.965s2.103-0.091,2.377-0.411c0.274-0.32,2.011-3.062,2.148-3.154
		c0.137-0.091,2.011-2.331,2.194-2.469c0.183-0.137,1.326-1.874,1.326-1.645c0,0.228,1.371,2.651,1.371,2.651v4.342l0.777,2.652
		l2.377,2.331c0,0,1.142,0.274,1.417,0.182c0.274-0.091,3.063-1.965,3.063-1.965s1.874-1.417,1.919-1.554
		c0.046-0.137,2.24-2.605,2.24-2.605s0.96,0.228,0.915,0.548c-0.046,0.32-0.183,4.343-0.183,4.571c0,0.229-0.366,5.165-0.366,5.165
		s0.732,3.931,1.6,4.251c0.869,0.32,3.017,0.869,4.068,0.64c1.051-0.228,2.925-0.731,3.2-0.731c0.274,0,4.709-2.56,4.709-2.56
		l0.594,1.188c0,0-1.509,2.789-1.554,2.925c-0.046,0.137-1.189,3.383-1.189,3.383l-1.554,3.657c0,0-0.959,2.88-0.914,3.063
		c0.046,0.183,0.732,1.691,0.914,1.6c0.183-0.091,2.743-2.194,2.743-2.194l0.045,0.914l-3.017,3.885l0.457,1.554l3.154,0.137
		l0.64-0.823c0,0,2.24-1.417,2.423-1.554c0.183-0.137,1.188-0.686,1.188-0.686l-1.143,3.062l4.023-1.005l1.645,0.045l1.372,1.006
		c0,0,1.234,0.731,0,1.646c-1.234,0.914-5.211,2.468-5.211,2.468l-4.343,2.057l-3.245,4.434l-0.366,2.879l5.303,0.091
		c0,0-6.4,2.011-6.263,2.057c0.137,0.046,6.08-0.045,6.08-0.045s-1.417,1.737-2.56,1.92c-1.143,0.183-2.377,0.686-2.149,1.097
		c0.229,0.411,1.189,1.6,1.326,1.6c0.137,0,2.331-0.045,2.651,0c0.32,0.046,1.646,0.549,2.652,0.503
		c1.005-0.046,6.125,0.045,6.125,0.045l3.382,1.965c0,0,2.743,3.931,2.697,4.572c-0.045,0.64,0.001,2.696,0.001,2.696
		s1.371,0.641,1.417,1.326c0.045,0.686,0.411,2.514,0.411,2.514l-1.097,1.417l-2.788,0.183l-6.4-1.371l-3.657-1.417l-1.783-3.337
		l-0.548-0.869c0,0-6.263,1.784-6.125,2.24c0.137,0.457,2.331,2.422,2.331,2.422l0.686,2.286l1.783,1.965l-4.937,0.411l-2.925,1.509
		l2.469,3.063l1.142,2.103l-0.64,0.64l-2.286-0.503l-3.2-1.325l-4.114-2.057l-3.154,1.417l-0.549,7.36l0.457,6.126
		c0,0-1.783,0.823-1.875,0.685c-0.091-0.137-2.011-5.942-2.011-5.942l-3.885-4.663l-2.286,7.313l-1.371-1.462l-0.32-2.469
		c0,0-1.691,1.188-2.331,1.28c-0.64,0.091-1.234,0.045-1.508,1.142c-0.274,1.097-3.108,8.685-3.108,8.685s-2.469-5.896-2.652-5.988
		c-0.182-0.091-1.005-2.468-3.291-2.56c-2.286-0.091-3.246-0.685-3.246-0.685l-2.56,0.868c0,0-1.874-0.228-1.92-0.091
		c-0.045,0.136-2.011,3.931-2.011,3.931l-0.869,1.051l-0.783-0.549l-0.543,0.183l-1.463-2.925l-1.051-5.851l-0.96-1.965
		c0,0-2.102,1.143-2.331,1.326c-0.228,0.183-4.205,2.514-4.205,2.514l-0.686-1.417c0,0-0.32-0.777,0.64-1.875
		c0.96-1.097,1.828-2.605,1.828-2.605s-0.457-0.869-0.64-1.097c-0.183-0.228-1.417-1.463-1.691-1.6
		c-0.274-0.137-2.789-1.646-2.789-1.646l-3.474,2.057l-1.234,0.777L89.473,200.548z"/>
	<path d="M115.459,185.7c-0.233,0.119-0.644,0.325-1.352,0.667c-0.134,0.064-0.242,0.09-0.327,0.09
		c-0.192-0.002-0.304-0.12-0.395-0.358c-0.085-0.235-0.116-0.564-0.115-0.882c-0.001-0.548,0.085-1.059,0.085-1.06l-0.224-0.038
		c-0.001,0.003-0.088,0.528-0.088,1.097c0.001,0.333,0.028,0.68,0.129,0.959c0.095,0.276,0.294,0.51,0.609,0.509
		c0.13,0,0.27-0.038,0.426-0.113c1.419-0.687,1.647-0.823,1.654-0.827l-0.116-0.195C115.744,185.549,115.692,185.58,115.459,185.7z"
		/>
	<path d="M164.347,182.401c0,0-2.789-0.846-2.743-3.131c0,0-0.183-0.915-0.389-1.212c0,0-0.183,0.435,0.069,1.554
		c0.251,1.12,0.434,1.76,0.64,1.897c0,0-1.394-0.549-1.965-0.366c0,0,3.611,1.645,4.205,2.08
		C164.164,183.224,165.535,183.43,164.347,182.401z"/>
	<path d="M157.513,189.578c-0.16-1.029-1.577-1.509-1.577-1.509c1.005,1.188,0.594,1.36,0.594,1.36
		c-0.931-0.704-2.789-1.154-2.789-1.154l3.108,1.668C157.833,190.606,157.513,189.578,157.513,189.578z"/>
	<path d="M142.198,178.78c0.124-0.154,0.154-0.417,0.155-0.706c-0.001-0.578-0.143-1.259-0.144-1.261l-0.111,0.023
		c0,0.001,0.141,0.677,0.141,1.238c0.002,0.239-0.035,0.439-0.101,0.563l-1.609-1.939l-0.088,0.072l1.712,2.064L142.198,178.78z"/>
	<path d="M128.533,175.51l-0.777-0.435c0,0,0.274,0.834,1.394,0.88c1.12,0.045,1.075-0.8,1.029-1.143
		c-0.045-0.343-0.274-0.525-0.525-0.206C129.653,174.607,129.881,175.751,128.533,175.51z"/>
	<path d="M99.168,164.785c-0.874,0.526-1.846,1.085-2.411,1.577c-0.157,0.137-0.246,0.286-0.246,0.443
		c0.007,0.262,0.22,0.44,0.483,0.59c0.801,0.443,2.328,0.67,2.335,0.672l0.034-0.224c-0.002-0.001-0.675-0.103-1.347-0.296
		c-0.335-0.096-0.67-0.216-0.911-0.351c-0.247-0.135-0.374-0.285-0.367-0.391c-0.001-0.067,0.037-0.157,0.168-0.273
		c0.533-0.467,1.503-1.028,2.378-1.554c0.878-0.535,1.652-1,1.856-1.409l-0.206-0.096
		C100.819,163.751,100.039,164.269,99.168,164.785z"/>
	<path d="M110.082,158.413c0-0.181-0.024-0.369-0.047-0.556c0.175,0.082,0.459,0.215,0.787,0.374
		c0.518,0.25,1.113,0.548,1.401,0.726l0.119-0.193c-0.609-0.375-2.386-1.193-2.388-1.194l-0.197-0.091l0.037,0.213
		c0.043,0.244,0.062,0.486,0.062,0.722c0,0.741-0.183,1.424-0.367,1.919c-0.092,0.248-0.184,0.45-0.253,0.588
		c-0.068,0.139-0.113,0.213-0.113,0.213l0.195,0.116C109.322,161.24,110.08,159.97,110.082,158.413z"/>
	<path d="M125.316,163.002c0.283-0.448,0.678-0.869,0.916-0.851l0.235,0.131c0.084,0.101,0.17,0.278,0.242,0.545l0.219-0.06
		c-0.078-0.286-0.172-0.489-0.287-0.63c-0.113-0.14-0.261-0.216-0.41-0.214c-0.437,0.018-0.799,0.5-1.106,0.954
		c-0.3,0.46-0.512,0.914-0.513,0.917l0.206,0.096C124.819,163.889,125.027,163.445,125.316,163.002z"/>
	<polygon points="133.536,163.947 133.536,163.947 133.536,163.947 	"/>
	<path d="M134.675,163.726c0.66,0.009,1.351,0.237,1.587,1.328l0.222-0.047c-0.242-1.198-1.097-1.518-1.809-1.509
		c-0.655,0.001-1.218,0.236-1.226,0.239l0.088,0.21c0.001-0.001,0.131-0.054,0.341-0.11
		C134.088,163.781,134.374,163.726,134.675,163.726z"/>
	<polygon points="138.525,155.553 139.237,157.437 139.45,157.357 138.607,155.128 137.522,156.315 137.69,156.468 	"/>
	<path d="M146.261,153.593l0.049,0.166c0.063,0.247,0.126,0.599,0.126,1.014c-0.001,0.61-0.135,1.353-0.607,2.107l0.193,0.121
		c0.497-0.795,0.641-1.585,0.641-2.228c0-0.875-0.264-1.48-0.267-1.489l-0.091-0.208l-0.112,0.198
		c-0.679,1.199-1.681,2.453-2.513,3.404c-0.832,0.951-1.49,1.598-1.492,1.6l0.16,0.162
		C142.351,158.434,144.848,155.974,146.261,153.593z"/>
	<path d="M159.851,165.353c0.363-0.246,0.695-0.466,0.966-0.643c0.223-0.124,0.44-0.261,0.645-0.417l0.021-0.013l-0.001-0.001
		l0.009-0.006l-0.13-0.186c-0.001,0.001-0.264,0.167-0.665,0.43c-0.584,0.324-1.211,0.547-1.743,0.691
		c-0.74,0.201-1.289,0.257-1.29,0.257l0.023,0.226c0.006-0.002,0.883-0.09,1.918-0.445c-0.878,0.598-1.891,1.319-2.552,1.892
		l0.149,0.172C157.877,166.723,158.95,165.964,159.851,165.353z"/>
	<path d="M121.33,143.568c0.105,0.315,0.277,0.857,0.453,1.528c0.284,1.08,0.58,2.491,0.625,3.803l0.227-0.008
		c-0.094-2.678-1.194-5.698-1.196-5.703l-0.108-0.298l-0.105,0.299c-0.662,1.872-1.244,3.368-1.661,4.395
		c-0.417,1.027-0.667,1.583-0.667,1.585l0.207,0.093C119.107,149.259,120.06,147.13,121.33,143.568z"/>
	<path d="M127.764,151.284c0.078-0.288,0.163-0.576,0.24-0.788l0.078-0.183c0.091,0.298,0.308,1.014,0.53,1.812
		c0.289,1.038,0.58,2.218,0.605,2.746l-0.759,2.243l0.466-0.681c0.008-0.012,1.165-1.737,1.656-5.339
		c0.243,0.488,0.737,1.484,1.262,2.587c0.736,1.545,1.525,3.288,1.724,4.021l0.219-0.06c-0.422-1.539-3.16-6.964-3.162-6.969
		l-0.17-0.336l-0.044,0.374c-0.219,1.837-0.615,3.191-0.968,4.114c-0.079-1.189-1.188-4.722-1.189-4.729l-0.002-0.009l-0.004-0.008
		l-0.142-0.097c-0.13,0.018-0.147,0.092-0.193,0.159c-0.135,0.248-0.292,0.799-0.424,1.303c-0.131,0.502-0.231,0.947-0.231,0.947
		l0.222,0.05C127.478,152.439,127.608,151.861,127.764,151.284z"/>
	<path d="M135.923,146.317l0.02,0.058c0.161,0.492,0.484,1.678,0.484,3.251c0,0.599-0.047,1.253-0.167,1.947l0.224,0.039
		c0.123-0.707,0.171-1.375,0.171-1.985c-0.001-2.138-0.586-3.576-0.589-3.584l-0.077-0.189l-0.12,0.165
		c-0.925,1.275-2.101,2.175-3.047,2.755c-0.473,0.29-0.887,0.5-1.183,0.637c-0.295,0.137-0.47,0.201-0.47,0.201l0.078,0.213
		C131.256,149.82,134.024,148.807,135.923,146.317z"/>
	<path d="M155.575,147.264c0.594-0.95,1.253-1.961,1.554-2.315c-0.019,0.336-0.193,1.145-0.374,2.125
		c-0.192,1.044-0.384,2.277-0.385,3.363c0,0.296,0.014,0.581,0.048,0.849l0.225-0.028c-0.032-0.257-0.045-0.533-0.045-0.821
		c0-1.06,0.19-2.284,0.381-3.322c0.191-1.043,0.382-1.885,0.384-2.24l-0.018-0.141l-0.145-0.113l-0.156,0.08
		c-0.296,0.299-1.006,1.398-1.662,2.443c-0.652,1.041-1.235,2.013-1.235,2.013l0.195,0.116
		C154.343,149.272,154.924,148.303,155.575,147.264z"/>
	<path d="M216.091,180.081h-0.823c0,0,0.411-14.182-0.685-17.107c0,0-1.463-1.919-1.692,0.64c0,0,0.868,10.011,0.457,16.273
		c0,0-7.771-0.183-13.622,1.417c0,0-0.274-15.267,0-16.867c0,0-0.594-1.874-1.417-0.503c0,0-0.777,7.451-0.549,17.598
		c0,0-4.068,0.948-5.028,1.708c0,0-1.279,0.852,0.229,1.264c0,0,4.388-0.869,4.844-0.777l-0.365,14.079c0,0,0.411,2.194,1.325,1.692
		c0,0,0.777,0.411,0.366-2.423c0,0,0.641-13.268,0.594-13.834c0,0,6.354-1.708,13.485-1.525c0,0,0.091,13.805,0.868,15.496
		c0,0,1.28,0.96,1.509-0.457c0,0-0.641-11.639-0.366-15.053h1.234C216.457,181.702,217.234,180.549,216.091,180.081z"/>
	<path d="M235.061,188.48l-1.005-0.228v-4.891c-0.047-6.445-2.835-8.639-2.835-8.639c-3.246-3.2-7.131-0.091-7.131-0.091
		c-6.125,4.845-6.491,15.084-6.491,15.084v6.675c0.96,2.422,1.737,0,1.737,0c0.092-0.732,0.411-6.217,0.411-6.217
		c2.423-0.503,12.388-0.275,12.388-0.275l-0.137,7.086c1.097,2.971,1.828,0.502,1.828,0.502l0.183-7.405h1.326
		C237.164,189.303,235.061,188.48,235.061,188.48z M232.136,187.886c-4.16-0.183-11.885,0.457-12.388,0.457l1.143-5.531
		c2.331-7.725,7.039-7.771,7.039-7.771C233.051,175.407,232.136,187.886,232.136,187.886z"/>
	<path d="M253.712,173.275c0,0-0.594-1.525-1.784-0.336c0,0-0.64,5.435-3.337,7.426c0,0-1.873,2.809-5.028,0
		c-0.524-0.73-1.012-1.489-1.472-2.261c-0.405-0.678-0.893-1.366-1.13-2.123c-0.2-0.644-0.316-1.698-0.954-2.067
		c-0.5-0.289-1.315-0.074-1.335,0.58c0,0-0.594,19.336-0.457,21.256c0,0,1.005,1.371,1.783,0c0,0,0.594-16.045,0.594-16.228
		c0-0.183,2.56,4.114,5.166,3.885c0,0,3.748,1.005,6.125-4.16c0,0,0.275,15.633,1.188,19.747c0,0,0.275,1.509,0.824,1.326
		c0,0,0.823-0.137,0.868-1.143C254.762,199.177,253.529,176.263,253.712,173.275z"/>
	<path d="M274.921,182.356c0,0,4.525-4.389,3.382-9.325c0,0-1.005-6.125-10.285-4.526c0,0-7.09,1.576-7.865,11.576
		c-0.774,9.999,0.735,13.199,0.735,13.199s-1.372,0.228-0.366,2.697c0,0,1.691,4.297,7.679,5.165c0,0,9.051,1.92,14.353-3.565
		c0,0,4.159-4.617,1.554-10.468C284.109,187.109,281.915,182.081,274.921,182.356z M282.738,192.96c0,0-1.463,6.217-9.966,6.583
		c0,0-7.724-0.137-9.05-3.154c0,0-1.737-7.36-1.783-9.417c0,0-1.097-14.032,5.713-16.227c0,0,7.131-2.468,8.457,2.011
		c0,0,1.783,4.704-2.469,7.883c0,0-1.875,1.99-3.108,2.219c0,0-3.382,0.594-3.017,2.56c0,0,0.412,1.554,3.2-0.136
		c2.474-1.501,6.586-1.356,9.097,0.045C279.812,185.326,284.245,187.52,282.738,192.96z"/>
	<path d="M301.336,186.698c-1.276-1.339-2.892-2.172-4.474-3.063c-2.851-1.606-6.091-3.975-4.318-7.57
		c0.715-1.452,2.031-2.533,3.461-3.291c0.422-0.224,0.869-0.426,1.346-0.462c0.476-0.035,0.991,0.126,1.273,0.512
		c0.309,0.421,0.278,0.99,0.396,1.499c0.03,0.125,0.079,0.253,0.144,0.371c0.201,0.361,0.549,0.639,0.922,0.519
		c0.433-0.14,0.548-0.693,0.543-1.148c-0.013-1.232-0.447-2.554-1.484-3.218c-0.735-0.471-1.675-0.539-2.526-0.344
		c-0.85,0.195-1.626,0.63-2.356,1.11c-1.407,0.928-2.709,2.072-3.553,3.531c-0.844,1.459-1.182,3.266-0.637,4.861
		c0.605,1.778,2.181,3.04,3.792,4.001c2.414,1.439,5.37,2.78,6.883,5.296c0,0,2.4,3.977-0.777,6.195c0,0-2.422,2.445-6.833,1.143
		c0,0-4.32-2.057-5.303-2.949c0,0-2.034-0.686-1.325,1.074c0,0,2.833,2.971,5.804,3.703c2.972,0.732,4.594,1.188,8.182-0.8
		C304.703,195.337,304.301,189.814,301.336,186.698z"/>
	<path d="M324.546,178.607c0,0-1.63-4.114-5.149-8.914c-3.52-4.799-8.914-6.079-8.914-6.079l0.045-1.143
		c-0.365-0.914-1.6-0.228-1.6-0.228l-0.274,1.051c-0.869-0.091-1.829,0.869-1.829,0.869c-0.091,0.868,2.057,1.051,2.057,1.051
		l-0.228,6.4c-0.32,1.965-0.96,13.133-0.96,13.133c-0.137,4.631,1.097,11.414,1.097,11.414c0.165,0.523,0.779,1.019,1.342,0.747
		c0.736-0.354,0.356-1.437,0.271-2.044c-0.091-0.66-0.095-1.351-0.133-2.018c-0.102-1.807-0.153-3.618-0.194-5.427
		c-0.064-2.86-0.098-5.722-0.098-8.583c0.091-1.142,0.868-13.073,0.868-13.073c7.908,2.468,11.794,14.602,11.794,14.602
		c4.388,12.728-0.183,17.35-0.183,17.35c-2.331,4.342-11.519,3.473-11.519,3.473c-3.108-0.319-8.595-0.228-8.595-0.228
		c-1.417,0.641,0,1.692,0,1.692l8.229,0.732c5.805,0.411,11.016-1.914,11.016-1.914c4.983-2.601,5.166-10.336,5.166-10.336
		C326.985,185.83,324.546,178.607,324.546,178.607z"/>
	<path d="M116.717,163.203c0,0-3.899,0.088-4.02,6.068c-0.004,0.217,0.007,0.436,0.03,0.652c0.146,1.334,0.871,5.849,3.99,5.577
		c0,0,3.794-1.097,3.657-5.348C120.373,170.151,120.739,163.568,116.717,163.203z M118.179,169.648c0,0-1.051,0.274-1.326-1.006
		c-0.274-1.28-0.503-1.828,0.366-1.965C118.088,166.539,118.957,168.688,118.179,169.648z"/>
	<path d="M143.914,165.215c-0.228,4.342,2.861,6.469,3.749,6.353c0,0,3.474,0.262,3.931-4.897c0.457-5.159-2.24-7.856-3.703-7.81
		C146.428,158.905,144.143,160.873,143.914,165.215z M147.48,163.065c0.083-0.272,0.897-0.304,1.087-0.243
		c0.698,0.224,0.866,1.159,0.982,1.778c0.086,0.461,0.359,1.423-0.4,1.559h-0.16c-0.177-0.031-0.34-0.154-0.492-0.257
		C147.54,165.253,147.137,164.184,147.48,163.065z"/>
	<path d="M124.99,189.944c1.783-2.057,1.188-3.383,0.823-3.373s-1.304,0.905-1.304,0.905l1.09-0.307
		c0.014,0.699-1.294,1.678-1.796,2.455c-0.503,0.777-0.366-4.983-0.366-4.983c-1.097,0.549-0.594,5.303-0.594,5.303
		C123.756,192.366,124.99,189.944,124.99,189.944z"/>
	<path d="M148.115,184.246h-0.167c-0.029,0.002-0.19-0.002-0.405,0.075c-0.106,0.04-0.233,0.106-0.347,0.233
		c-0.115,0.124-0.193,0.319-0.19,0.511l0.002,0.052c0.009,0.12,0.034,0.206,0.064,0.31c0.108,0.349,0.323,0.856,0.513,1.367
		c0.095,0.253,0.183,0.503,0.244,0.717l0.016,0.064c-0.242-0.149-0.525-0.358-0.748-0.535c-0.119-0.095-0.222-0.18-0.294-0.242
		l-0.113-0.095l-0.629,0.636c0.006,0.007,0.423,0.472,0.947,0.949c0.262,0.239,0.55,0.48,0.839,0.673
		c0.294,0.186,0.569,0.35,0.935,0.36c0.102,0,0.213-0.018,0.322-0.065h0.001c0.229-0.103,0.345-0.304,0.397-0.468
		c0.055-0.169,0.069-0.336,0.07-0.514c-0.003-0.63-0.203-1.444-0.453-2.194c-0.126-0.374-0.264-0.724-0.406-1.017
		c-0.147-0.295-0.267-0.52-0.472-0.708L148.115,184.246z"/>
	<path d="M152.805,181.167c0,0-0.298-1.874-1.646-3.359l0.137,1.12l-1.074-0.571c0,0,0.045,1.029,0.274,1.257l-0.183,0.32
		l0.96,1.074l-1.28-0.16c0,0,2.171,0.846,2.605,1.737c0,0,0.709,0.32,0-1.029C152.599,181.555,152.279,181.144,152.805,181.167z"/>
	<path d="M112.9,193.92c0,0-2.811,1.965-4.64,2.674C108.26,196.594,111.254,197.508,112.9,193.92z"/>
	<path d="M151.645,158.859c0.634-0.32-0.188-1.188-0.188-1.188h0.72c1.153-0.77-0.892-1.44-0.892-1.44
		c-3.051-1.646-3.703-0.389-3.703-0.389C147.96,156.586,151.447,158.96,151.645,158.859z"/>
	<path d="M116.282,158.859c-0.857-0.8-3.017,0.572-3.017,0.572c-0.446,1.074-1.714,2.183-1.714,2.183
		c1.166,0.343,3.394-0.994,3.394-0.994C116.042,160.311,116.282,158.859,116.282,158.859z"/>
	<path d="M98.569,150.095c1.097-5.794-0.548-11.439-0.548-11.439l1.554,2.149c3.382,5.439,8.547,6.948,8.547,6.948l0.183-0.457
		c-1.234,0.229-4.342-2.743-4.342-2.743c-2.377-1.646-5.394-6.445-6.674-7.862c-1.28-1.417-0.665,0.366-0.665,0.366
		C98.338,140.301,98.569,150.095,98.569,150.095z"/>
	<path d="M91.393,154.917l0.365-1.816l0.96,1.691c0,0-0.686-3.977-0.548-5.577c0,0-0.494-1.874-0.018-1.371
		c0,0,6.143,6.628,6.234,6.948c0,0,2.011,0.869,0.686-1.965c0,0-5.805-6.171-6.262-6.171c0,0-1.874-2.011-2.377,0
		c0,0-0.412,2.788,0.228,5.211C90.662,151.866,91.53,154.174,91.393,154.917z"/>
	<path d="M130.955,188.458c-0.891,0.343-2.194-0.627-2.194-0.627c-1.234-0.285-1.577,1.381-0.959,1.107
		c0.617-0.275,2.605,1.234,2.605,1.234c2.263,4.868,6.034,3.291,6.788,3.085c0.754-0.205,1.851-3.154,3.497-4.456
		s1.92-4.023,1.92-4.023c-1.714,0.023-2.811,2.514-3.291,3.02c-0.48,0.505-2.126,1.757-2.126,1.757
		C134.109,191.269,130.955,188.458,130.955,188.458z M137.255,192.077l0.154,0.166c-0.998,0.923-2.259,0.92-2.271,0.921v-0.226
		c0-0.001,0.07,0,0.196-0.013c0.126-0.014,0.305-0.041,0.513-0.095C136.263,192.723,136.793,192.507,137.255,192.077z
		 M135.794,191.126c-0.302,0.111-0.625,0.155-0.951,0.155c-1.235-0.001-2.56-0.625-3.021-0.725l0.05-0.222
		c0.515,0.118,1.801,0.721,2.971,0.719c0.307,0,0.602-0.041,0.872-0.141L135.794,191.126z"/>
	<path d="M112.008,158.357c0.457,0.183,0.96-0.503,0.96-0.686c0-0.183-1.097-3.703-1.417-4.152c-0.32-0.45-0.8-4.076-0.8-4.076
		l5.325,3.246l-0.183,2.695h0.713v-2.375l0.937,1.6l0.453-0.045l0.045-1.044c-0.869-0.998-0.731-2.248-0.731-2.248l0.37,0.732
		c0.324,1.005,1.321,1.142,1.321,1.142c2.469,4.343,2.24,1.771,2.24,1.771c-1.737-4.079-3.698-5.245-3.698-5.245
		c-1.367-0.823-1.262,1.919-1.262,1.919l-4-2.754c-3.337-2.069-2.606,2.754-2.285,3.074
		C110.317,152.232,112.008,158.357,112.008,158.357z"/>
	<path d="M61.727,157.672c0,0,5.302,3.474,6.491,5.851c0,0,0.229,0.457-0.228,0.731c0,0,0.091,0.732,0.777,0
		c0,0,1.097,0.046,0.366,0.823c0,0-1.051,0.228-0.229,0.663c0,0,1.143-0.252,1.646,0.343c0,0,0.64,0.549,0.869,0.32
		c0,0,0.869,0.137-0.777-3.474c0,0-0.274-4.571-2.879-7.634c0,0-2.285-3.382-5.097-4.251c0,0-1.623-1.737-4.64-1.371
		c0,0-0.818,0.404,3.565,1.965c0,0,6.217,4.525,8,10.788c0,0-2.652-1.92-5.028-4.48c0,0-6.765-5.669-11.062-5.76l0.183,1.17
		C53.682,153.356,59.624,155.249,61.727,157.672z"/>
	<path d="M73.886,172.071c0,0-3.383-1.28-6.263,0.503c0,0-4.114,1.417-6.354,5.851c0,0-1.874,4.16-2.651,5.211
		c0,0,1.005,0.092,1.92-2.239l1.28-1.031c0,0,2.148-4.089,4.525-5.415c0,0,2.148-2.057,3.611-2.148c0,0-0.183,1.006-2.56,1.875
		c0,0-1.6,0.973-2.423,2.954c0,0-2.377,3.445-3.017,6.004h0.823c0,0,1.325-3.52,3.748-5.988c0,0,2.423-3.839,7.908-4.114
		C74.434,173.533,75.028,172.71,73.886,172.071z"/>
	<path d="M91.439,179.018c-0.869-3.611-5.485-5.668-6.673-6.034c-1.189-0.366-0.183-0.366,1.161-0.96
		c1.344-0.594,8.72-0.183,8.72-0.183v-0.777l-3.163-0.182l1.332-0.64c0.921-0.549,0.039-1.405-0.967-1.508
		c-1.005-0.104-0.64,0.623-0.64,0.623c1.646-0.52,0.777,0.565,0.777,0.565c-0.471,0.09-1.097,0.195-1.684,0.288v-4.997l0.222,1.737
		c0.091,0.732,0.869,0.046,0.869,0.046c0.457-2.789-0.412-5.327-0.412-5.327c-0.137-0.709,1.835-1.119,1.835-1.119
		c-0.999-0.503-1.972,0.183-1.972,0.183c-0.137-1.28-1.646-3.062-1.646-3.062s4.068,2.377,4.251,2.468
		c0.183,0.091,3.382,1.463,4.159,1.559c0.777,0.095,1.915-0.028,1.915-0.028c-0.416-0.161-0.223-0.662-0.223-0.662
		c0.914-0.914,0-0.594,0-0.594l-1.188-0.091l-1.234-1.188c-0.411-0.366-3.063-1.965-4.708-2.469
		c-1.646-0.503-4.068-2.782-4.068-2.782c-0.869-1.046-0.732,0.497-0.732,0.497h-0.869c-1.417,0.183,0.229,1.463,0.229,1.463v1.051
		c0,0,2.011,5.348,2.468,6.308c0.399,0.838,0.415,5.855,0.412,7.116c-0.575,0.089-1.007,0.152-1.007,0.152
		c-1.28,0.137-3.931,0.777-3.931,0.777c-2.788-0.503-4.205,0-4.205,0c-0.137,2.148,3.428,4.571,3.428,4.571
		c0.503,0.457,4.297,3.017,4.297,3.017c-0.64-1.234-5.12-5.148-5.12-5.148C87.645,174.071,91.439,179.018,91.439,179.018z
		 M92.905,157.875c0.244,0.309,1.165,0.869,2.005,1.326c0.843,0.461,1.615,0.836,1.617,0.837l-0.1,0.204
		c-0.001-0.001-0.778-0.378-1.626-0.842c-0.851-0.468-1.761-1.005-2.072-1.382L92.905,157.875z M88.484,155.931
		c0,0,2.789,1.829,3.931,2.583l-0.125,0.19c-1.142-0.754-3.926-2.58-3.93-2.583L88.484,155.931z M88.314,159.034l-0.914-2.651
		l0.215-0.074l0.914,2.651L88.314,159.034z M89.051,158.658l0.204-0.099c0.427,0.885,0.921,3.841,0.924,3.848l-0.224,0.038
		c-0.001-0.002-0.125-0.741-0.302-1.587C89.478,160.014,89.246,159.056,89.051,158.658z M81.291,171.625
		c-0.049-0.31,2.423,0.308,2.423,0.308S81.565,173.375,81.291,171.625z"/>
	<path d="M196.87,162.283c1.44-0.223,0.275-0.931,0.275-0.931c-4.709-0.892-10.995-3.451-10.995-3.451
		c0.137-4.663,2.195-11.496,2.195-11.496c0.035-1.234,0.663-1.005,0.663-1.005c3.177,1.394,8.547,2.948,8.547,2.948
		c-0.41-0.297-2.377-1.12-2.377-1.12c0.709-0.16,2.949,0.983,2.949,0.983c1.76,0.503,1.005-0.457,1.005-0.457l-2.971-1.874
		l-6.811-3.086c0.846-1.943,2.422-10.696,2.422-10.696c0.709-3.291,0.32-5.097,0.344-5.211c0.022-0.114,1.439-6.582,1.439-6.582
		c5.807,1.485,17.53,6.422,17.53,6.422c0.982-0.069,0.16-0.627,0.16-0.627s-4.753-2.001-5.257-2.322
		c-1.37-1.12-11.702-6.354-11.702-6.354l1.372-3.862c1.393-3.383,0.007-3.543,0.007-3.543c0.351-2.994,1.182-3.542,1.182-3.542
		c0.64,0.457,8.57,3.588,8.57,3.588c1.737,0.389,1.371-0.297,1.371-0.297c-0.114-0.389-2.788-1.989-2.788-1.989
		c-0.96-0.525-0.023-1.074-0.023-1.074c0.777-0.045,0.549-0.525,0.549-0.525c-0.755,0-6.994-2.537-6.994-2.537l0.137-2.091
		c-0.617,0.171-1.235,1.406-1.235,1.406c-0.171-0.72,0-3.474,0-3.474c0.869-5.302,0.709-9.165,0.709-9.165
		c-0.755,0.548-0.778,4.297-0.778,4.297l-0.41,0.183c-0.869,0.823-0.754,3.748-0.754,3.748c-0.845,0.571-1.281,3.177-1.281,3.177
		l-1.83-1.015c-1.145-0.512-0.981,0.284-0.981,0.284c0.069,0.182,0.503,0.548,0.503,0.548c-0.732-0.114-5.463-2.08-5.463-2.08
		c-2.033-0.48-0.457,0.731-0.457,0.731l-0.897-0.217c-0.719,0.137-0.103,0.734-0.103,0.734c0.686,0.854,7.397,3.517,7.397,3.517
		l0.573,0.754v2.228c-0.685,2.057-1.408,9.085-1.408,9.085s-10.008-4.423-10.59-4.559c-0.583-0.137-0.686,0.308-0.686,0.308
		l-2.4-0.594c-1.268-0.251-0.583,0.835-0.583,0.835c0.24,0.103,8.193,3.565,8.193,3.565c-1.953-0.549-5.713-1.268-5.713-1.268
		c-1.017-0.137-0.492,0.583-0.492,0.583c0.377,0.48,11.417,4.046,11.417,4.046c-1.166,2.948-0.995,5.039-0.995,5.039l0.783,0.069
		l-0.988,4.114c0,0,0.274,0.137,0.411,0.411c0.137,0.274-0.96,3.943-1.233,4.217c-0.514,0-0.995,0.549-0.995,0.549l-0.411,1.621
		c-0.652,0.079-1.143,2.149-1.143,2.149c-0.149,1.406-0.743,3.771-0.743,3.771s-7.303-3.017-8.125-3.326
		c-0.823-0.308-0.583,0.309-0.583,0.309l0.377,0.48l-1.44-0.48c-2.194-0.857-1.611,0.48-1.611,0.48
		c1.303,1.337,11.051,5.211,11.051,5.211l-2.205,12.821c-1.029-0.617-5.554-1.817-5.554-1.817l-0.48,0.558
		c0,0-3.566-1.278-4.32-1.278s-0.446,0.686-0.446,0.686l0.937,0.274l0.891,0.183l1.12,0.411c0,0,2.126,0.777,2.674,0.983
		c0.549,0.206,1.805,1.051,1.965,1.395c0.16,0.343,2.811,0.525,2.811,0.525c0.092,0.846-1.508,8.959-1.508,8.959
		c-0.366,2.126-0.549,2.468-1.018,2.857c-0.469,0.389-0.925,0.457-1.245,0.625c-0.48,0.419-0.206,3.038-0.206,3.038l0.114,3.286
		c0.389,0.754,0.137,0.891,0.137,0.891c-0.343-0.252-2.423-1.005-2.514-1.051c-0.091-0.045-4.32,0.046-5.279-0.023
		c-0.96-0.069-5.074-0.297-6.285-0.297c-1.211,0-1.211-1.234-1.097-1.44c0.114-0.206,3.657-1.737,3.657-1.737
		c2.034-0.96,1.349-1.417,1.349-1.417c-0.32-0.366-5.302,0.206-5.302,0.206l6.103-1.554c0.823-0.64,0-1.097,0-1.097
		c-0.32,0.045-6.931,0.228-6.931,0.228c0.246-1.349,1.899-4.068,1.899-4.068c1.895-2.857,7.636-5.234,7.636-5.234
		c1.051-0.228,3.84-1.875,3.84-1.875c1.508-2.376-0.846-2.491-0.96-2.536c-0.114-0.046-0.286-0.48-0.286-0.48h-3.642l-0.301-0.459
		l-1.337-0.043l1.44-2.228c0.583-0.96-0.309-0.686-0.309-0.686c-0.788,0.994-5.382,3.943-5.382,3.943h-2.674l-0.069-0.525
		c-0.274-1.52,1.749-3.348,1.749-3.348c1.474-1.2,0.686-1.543,0.686-1.543c0.514-0.206,1.474-1.289,1.474-1.289
		c-1.234-0.74-2.159,0.946-2.571,1.323c-0.412,0.377-1.897,0.605-1.897,0.605c-0.08-1.794,1.28-5.713,1.28-5.713
		c0.994-3.223,3.257-6.823,3.668-7.268c0.412-0.446,2.229-4.903,2.229-4.903c-0.686-0.309-1.371,1.611-1.371,1.611
		c-1.029-0.069-4.903,2.674-4.903,2.674c-3.223,2.126-7.748,1.2-7.748,1.2c-2.674-2.743-2.503-6.754-2.503-6.754
		c0.034-2.057,2.04-9.759,2.04-9.759c1.205-2.263,0.222-3.405,0.222-3.405c-1.394-0.023-1.886,3.017-1.886,3.017
		c-0.206,0.96-1.611,2.297-1.611,2.297s-3.359,3.154-3.531,3.36c-0.171,0.206-2.228,1.474-3.531,2.228
		c-1.303,0.754-3.326-3.051-3.326-3.051c-1.268-1.646-0.308-2.605-0.171-2.914c0.171-1.68-1.406-4.766-1.406-4.766
		c0.754-0.926,0.343-1.885,0.343-1.885c-0.857-0.892-1.817,1.68-2.331,1.748c-0.72,1.303-0.652,0.274-0.926,0.171
		c-0.274-0.103-1.817,3.017-1.817,3.017l-0.651-1.199c-0.823-1.474-1.656,2.639-1.656,2.639c-0.833,3.291-3.383,1.554-3.383,1.554
		c-1.131-0.434-5.726-6.971-5.726-7.108c0-0.137-3.32-4.573-3.32-4.573c-0.476,0.261,0.338,2.893,0.338,2.893
		c0.685,4.488-1.187,7.403-1.19,7.407c-0.527-0.691-0.973-1.373-1.011-1.75c-0.096-0.96-0.937-1.646-0.937-1.646
		s0.047-2.194-1.133-1.988c0,0-0.62,4.388-1.551,5.005c0,0-0.04-3.565-1-1.851v1.371c0,0-6.103-6.719-6.857-7.679
		c0,0-1.234-1.988-2.605-1.508c0,0-1.11-1.303-1.069,0.48c0,0,2.92,6.308,2.166,13.028c0,0-1.864-1.166-2.166,0.206
		c0,0,0.589,3.839-1.125,3.359c0,0-2.722,0.891-4.789-2.194c0,0-2.479-3.36-3.301-5.211c0,0-0.686-1.92-1.646-1.851l-0.343-1.508
		l-0.8-0.206c0,0-0.845-2.743-0.777-0.069c0,0,1.111,13.164,0.693,20.364l-1.15,1.92c0,0-1.943-1.371-4-2.263
		c0,0-5.005-2.88-5.828-3.429c0,0-0.818-1.29-2.449-1.165c-0.221-0.2-0.487-0.394-0.773-0.498c-0.754-0.274-1.183,0.72-1.183,0.72
		c0.84-0.103,1.456,0.895,1.456,0.895l0.012-0.004c0.064,0.248,0.177,0.538,0.401,0.909c0,0,2.627,3.669,4.502,6.206
		c0,0,2.804,3.963,2.424,8.159c0,0-1.714,2.605-2.057,2.194c0,0,0.295-0.96-0.367-1.303c-0.662-0.343-3.267-2.445-3.747-3.588
		c0,0-1.303-1.691-1.714-1.211c-0.412,0.479-1.029,1.097,0.548,2.743c0,0,0.96,4.936,0.549,6.376c0,0-0.617-3.359-1.92-1.92
		c0,0-4.868-5.718-10.308-9.35c0,0-5.44-4.546-10.879-4.546c0,0-9.005-2.971-7.634,0h-4.663c0,0-2.925-0.96-2.743,0.823l0.777,2.194
		c0,0,5.165,4.159,5.759,6.308c0,0,5.942,7.314,6.719,10.331c0,0,4.068,5.622,3.291,12.524c0,0-0.32,8.868-0.914,11.473
		c0,0,0.594,2.88-0.137,4.023c0,0-0.869,4.251-1.508,4.708c0,0-1.234,2.469-0.594,2.331c0,0,1.142-1.326,1.142-1.097
		s0.229,1.188,0,2.423c0,0-0.228,2.422,1.326,1.005l1.28-0.64l0.64-1.052l0.594-0.091c0,0,3.017-5.074,4.663-6.811
		c0,0,2.834-4.206,6.354-5.532c0,0,4.663-3.291,7.497-3.108c0,0,2.56-0.639,3.337,2.515l1.143,4.159c0,0-2.331,2.377-1.326,3.382
		l1.097-0.823l0.823,0.091c0,0-1.829,1.28-0.64,1.692l0.96-0.091c0,0,0.823,4.844,0.868,5.621c0.046,0.777,0.229,2.057,0.229,2.057
		l0.548,0.183l-0.045,0.685c0,0,0.823,2.195,2.423,1.371c0,0,0.777,1.097,2.399-0.685c0.72,1.097,0.823,5.485,0.823,5.485
		c0.651,1.748,0.994,8.983,0.994,8.983c0.206,4.902-8.057,9.222-8.057,9.222c-5.622,3.428-7.679,8.845-7.679,8.845
		c-3.497,5.177-1.885,11.588-1.885,11.588c1.508,5.554,9.051,7.577,9.051,7.577c4.936,1.817,14.604,1.851,14.604,1.851
		c5.279-0.172,9.805,3.393,9.805,3.393c1.269,0.617,7.439,5.314,7.439,5.314c2.229,2.228,8.125,4.697,8.125,4.697
		c5.246,0.96,8.434-1.132,8.434-1.132c3.497-1.783,6.822-7.233,6.822-7.233c1.611-2.88,5.794-5.246,5.794-5.246
		c2.126-1.474,11.245-1.44,11.245-1.44c3.291-0.446,5.143-2.503,5.143-2.503c2.297-2.159,2.846-6.993,2.846-6.993
		c0.206-4.046,2.194-7.714,2.194-7.714c0.686-1.543,5.279-4.902,5.279-4.902c0.96-0.549,4.388-3.806,4.388-3.806
		c2.023-1.989,2.4-4.389,2.4-4.389c0.206-1.371-1.131-6.616-1.131-6.616c-0.72-2.469,2.331-5.588,2.331-5.588
		c0.754-0.514,2.228-2.846,2.228-2.846c0.994-1.886-0.548-4.354-0.548-4.354c-0.857-1.234-0.926-3.462-0.926-3.462l0.891-0.617
		l0.069-2.023c0,0,0.274,0.275,0.857,0.069c0.583-0.205,0.171-1.096,0.171-1.096c0.411-0.206,0.686-0.721,0.686-0.721
		c0.137-1.063-1.166-0.891-1.166-0.891v-1.886l1.783,0.137c1.474,0,3.016-1.715,3.016-1.715c0.719-1.439-1.504-4.456-1.504-4.456
		c-0.408-0.719,0.27-1.371,0.27-1.371v-0.514c-0.754-0.994-1.817-5.108-1.817-5.108l0.316-2.379
		c1.756-0.494,1.809-4.512,1.809-4.512c0.069-1.097,0.617-1.817,0.617-1.817c1.406-2.914,2.766-11.405,2.766-11.405
		c0.195-0.012,0.423,0.081,0.609,0.13c1.15,0.307,2.282,0.676,3.421,1.02c1.596,0.484,3.226,0.805,4.838,1.226
		C195.499,161.923,196.87,162.283,196.87,162.283z M204.527,109.081c-0.502-0.046-7.679-3.246-7.679-3.246
		C198.859,104.967,204.527,109.081,204.527,109.081z M195.567,98.888c0.274-0.32-0.092,3.657-0.228,3.657
		c-0.137,0-0.6-0.503-0.6-0.503C194.881,101.859,195.294,99.208,195.567,98.888z M194.562,105.241
		c0.594-0.914-0.457,4.526-0.915,5.303C193.252,111.217,193.968,106.155,194.562,105.241z M187.157,100.487
		c0,0,4.891,1.6,5.804,2.469C192.961,102.956,187.385,100.945,187.157,100.487z M192.367,111.275c0,0,0.228,2.011-0.274,2.971
		C192.093,114.247,192.048,112.098,192.367,111.275z M179.477,112.761c0,0,6.826,1.494,7.314,2.949
		C186.791,115.709,179.797,113.287,179.477,112.761z M182.951,116.029c4.023,0.457,7.68,2.789,7.68,2.789L182.951,116.029z
		 M192.322,122.886c0,0-0.823,4.754-1.965,6.308C189.575,130.257,191.773,123.8,192.322,122.886z M191.133,130.702
		c0,0-1.28,9.599-2.743,11.885C188.211,142.867,190.356,132.394,191.133,130.702z M187.888,138.382
		c0.045-0.137,0.024-2.925,0.492-3.749c0.468-0.823,0.319,2.789-0.246,3.749C187.568,139.342,187.888,138.382,187.888,138.382z
		 M174.677,138.61c0,0,4.343,1.097,5.897,2.743C180.674,141.458,175.272,139.57,174.677,138.61z M154.085,120.006
		c0,0,0.206,1.28-0.48,2.354h-0.726C152.982,122.274,153.468,120.257,154.085,120.006z M164.832,177.487
		c0.269-0.24,6.234,0.48,7.058,0.789c0,0-4.766,0.651-5.04,0.446C166.576,178.516,164.562,177.727,164.832,177.487z
		 M162.395,173.613c0.512-0.514,3.186-0.377,3.529-0.514c0,0-2.091,1.269-2.571,1.44c-0.479,0.171-0.686-0.446-1.097,0.446
		C162.256,174.984,161.883,174.127,162.395,173.613z M173.123,157.774c0.857-0.206,1.851-0.206,1.851-0.206s0.309,1.029-1.303,1.474
		l-6.239,2.674C167.535,161.682,172.266,157.98,173.123,157.774z M168.564,154.483c0.274-0.206-1.063,2.159-1.063,2.159
		l-1.612-0.274C166.438,156.095,168.289,154.689,168.564,154.483z M161.09,148.381c0,0-0.651-0.926-0.171-2.297
		c0.48-1.371,2.023-3.177,2.023-3.177S161.159,147.078,161.09,148.381z M161.159,155.843v1.28l-0.416-0.48L161.159,155.843z
		 M145.56,131.411c0.24,1.028-0.206,2.674-0.206,2.674C144.6,131.891,145.56,131.411,145.56,131.411z M133.287,127.125
		c0,0,0.171,0.001,0.309,0.72c0.137,0.72,0.651,1.599,0.548,3.079c0,0,0.686,1.972,0.686,2.772c0,0-0.171,1.991,0.137,2.253
		c0.308,0.262,0.446,0,0.446,0s-0.069-3.03,0-3.201c0.069-0.171-0.274-1.337-0.24-2.297c0.034-0.96-0.137-3.326-0.137-3.326
		s-0.823-2.503-0.103-3.051c0.72-0.549,1.92-2.709,2.571-3.36c0,0,0.274-0.434,0.686,0.468c0,0,0.994,0.926,0.514,4.308
		c0,0,0.343,3.143,2.297,4.754c1.954,1.611,1.954,1.611,1.954,1.611l-2.023,3.668l-0.651,1.2c0,0,0.446-0.103,0.583-0.206
		c0.137-0.103,1.406-2.434,1.406-2.434l1.131-1.886l0.549,0.034c0,0-2.4,3.496-2.4,4.079c0,0,0.343,0.754,0.72,0.446l0.891-1.234
		c0,0-2.331,4.297-2.845,4.702c0,0-0.103,0.714,0.994-0.314l1.063-1.707l0.103,0.854c0,0,0.892-1.17,0.96-1.513
		c0.069-0.343,1.2-2.674,1.2-2.674s0.034,4.903-0.72,6.856l1.029-0.08c0,0,0.891-1.908,0.926-2.971c0,0,0.446-1.851,0.48-2.091
		c0.034-0.24,0.137-4.08,0.137-4.149c0-0.068-0.377-1.734,0.754-2.495c0.857-0.315,2.468-2.407,4.285-2.818
		c0,0-1.166,5.691-0.617,9.291c0,0,1.303,3.737,2.846,4.251c0.411,0.171,2.297,0.789,5.416,0.103c0,0,2.777,0.103,5.348-1.989
		c0,0-4.594,5.279-4.765,7.028c0,0-0.137,4.194,0.514,5.782c0,0-0.48,0.663-0.789,0.732c-0.309,0.068-2.811,0.719-3.943,1.56
		l-3.007,0.806l-1.141-3.6c0,0-0.377-6.479,0.72-8.468c0,0,1.2-3.017-0.72-1.474c0,0-2.258,2.64-3.614,4.319l-4.853,5.486
		c0,0-0.652-2.194-1.269-4.148c-0.617-1.954-2.16-5.966-2.503-6.754c-0.343-0.789-0.857-4.663-0.514-5.588c0,0-0.171-1.44-1.2,0.788
		c0,0-1.337,2.983-1.577,3.36s-1.794,3.794-2.183,4.297c-0.389,0.503-0.697,1.865-0.697,1.865s-1.028-0.813-0.891-1.653
		c0,0,0.994-1.423,0.171-4.372c0,0-0.823-4.091-1.737-5.656c0,0,1.099-1.714,1.315-2.64
		C131.836,130.451,132.395,127.776,133.287,127.125z M131.71,142.907c0,0-1.074-1.326-0.754-5.36
		C130.955,137.547,132.235,141.719,131.71,142.907z M129.961,128.646l0.354-0.069l0.091-0.425h-0.251l-0.046-0.704
		c0,0,1.28,0.191,1.395,0.168c0.114-0.023-1.006,3.931-1.189,4.822c0,0-0.457-0.937-0.708-0.914
		C129.721,131,129.858,128.76,129.961,128.646z M129.218,127.411c-0.274,0.206-0.914-0.503-0.914-0.503
		C128.83,126.497,129.218,127.411,129.218,127.411z M128.761,132.028c-0.571,0.023-1.874,1.668-1.874,1.668
		c0.389-2.719,2.148-5.531,2.148-5.531C129.653,127.891,128.761,132.028,128.761,132.028z M120.053,122.108
		c0,0-0.215,2.373-0.509,3.216c-0.197-0.229-0.411-0.485-0.625-0.75C118.92,124.572,119.939,122.702,120.053,122.108z
		 M113.471,133.845l0.502-0.228l0.29-0.033l1.814,3.963c-1.478-1.333-3.154-0.239-3.154-0.239L113.471,133.845z M115.231,138.439
		c-1.086-0.069-2.617,1.474-2.617,1.474C113.197,137.342,115.231,138.439,115.231,138.439z M56.881,143.501
		c0,0-6.948-0.228-8.137-1.051C48.745,142.45,52.813,141.627,56.881,143.501z M52.082,155.157c-1.051-1.417-1.051-2.468-1.051-2.468
		C52.173,153.74,52.082,155.157,52.082,155.157z M54.505,197.028c0.228-2.469,1.783-3.612,1.783-3.612
		C55.967,194.423,54.505,197.028,54.505,197.028z M83.439,184.138c0,0-1.005-1.509,0-1.737
		C83.439,182.401,83.988,183.361,83.439,184.138z M86.731,182.401c0,0-0.686-1.005,0-0.915
		C87.416,181.578,86.731,182.401,86.731,182.401z M88.342,179.578c0,0-0.372-0.994-0.787-0.788
		c-0.413,0.206-0.482,0.411-0.688,0.651l-0.941,0.069c0,0-1.047-1.132-2.59,0.103l-0.548,0.274c0,0-0.514-1.052-1.269,0.194h-2.434
		c0,0-2.971-2.434-4.497-1.565c0,0-3.994,0.091-5.914,2.103c0,0-3.885,2.377-5.028,3.565c0,0-4.799,3.52-6.079,5.943
		c0,0-0.274-1.875-1.6-0.092l0.183-2.469c0,0,2.605-7.392,2.697-9.935c0,0,1.234-10.131-2.194-16.256c0,0,0.731-1.005-0.274-1.874
		c0,0-4.114-7.04-5.851-7.954c0,0-3.885-5.668-3.246-2.971c0,0-2.468-1.005-3.657-2.834c0,0-3.428-2.788-1.006-2.743
		c0,0,6.491,1.005,8.777,1.829c0,0,12.387,2.321,13.942,4.794c0.457,0.782,5.942,6.907,6.673,9.696c0,0,2.103,3.291,1.646,4.617
		c0,0,0.721,0.823,0.932-1.097c0,0,0.155-1.6,0.137-2.011c0,0,0.532,1.92,0.303,4.205c0,0,1.142,1.6,2.057-0.64l0.457-2.606
		l0.777-0.137c0,0,1.189-1.371,0.549-3.04l0.045-4.137l0.046-1.783c0,0,3.427,2.514,2.33,3.657c0,0-1.058,0-0.826,0.594
		c0,0,2.795-0.569,4.164-1.463c0,0-0.823-0.252-0.411-0.56c0.411-0.308,0.586-2.228,1.71-2.182l-0.613-1.005
		c0,0,1.097-4.023-0.731-6.674c0,0-1.554-4.008-3.04-4.95c1.124,0.512,4.159,1.989,5.627,3.635c0.412,0.461,1.095,0.606,1.647,0.328
		c0.621-0.314,1.426-1.027,2.303-2.577c0,0,1.829-2.469,1.234-5.76c0,0,0.137-7.314-0.274-9.005c0,0-0.503-2.56,0.274-1.6
		c0,0,2.915,6.765,7.171,7.406l3.458,0.365c0,0,0.113,3.063,0.57,3.703c0,0,0.32,2.88,0.183,3.314c0,0,1.006-3.131,0.777-4.685
		c0,0-0.731-4.114,0.32-2.879c0,0,1.508,0.365,2.24,3.177c0,0,1.142,1.577,1.783,1.257c0,0,0.777,0.64,0.594-0.045
		c0,0-0.914-1.806-1.143-3.234c0,0-1.6-3.668-2.331-4.125c0,0,0.091-8.937-0.869-11.748c0,0,5.417,5.623,6.171,5.897
		c0,0,2.194,1.714,1.988,4.937l-0.206,5.257l-0.777,3.931c-1.188,1.6-1.371,4.114-1.371,4.114c-0.228,0.915-0.777,2.423-0.777,2.423
		c0.32-0.091,0.869-1.28,0.869-1.28c-0.002,2.286,0.731,1.828,0.731,1.828c0.549-0.138,0.732-1.508,0.732-1.508
		c-0.045-2.377,2.286-3.474,2.286-3.474c2.377-1.097,3.839,4.388,3.839,4.388c1.371,0.411,1.005-1.326,1.005-1.326l0.732-0.183
		l-0.869-0.503c-0.411-1.691-2.377-3.794-2.377-3.794c-0.447-1.754-1.493-3.772-2.085-4.834c0,0-0.499-2.425,0.786-4.677
		c0.457-0.801,0.734-1.699,0.833-2.617c0.073-0.677,0.215-1.14,0.489-0.283c0,0,2.537,4.799,2.468,5.211
		c-0.069,0.411-1.44,3.086-1.371,4.388c0,0,1.303-1.646,1.577-3.497c0,0,1.074,0.411,0.983,1.989c0,0,0.663,1.097,1.28,0.617
		c0,0,2.263,1.257,0.137-3.931l-1.314-3.241l-0.229-1.673c1.131-1.886,0.754-4.491,0.754-4.491
		c-0.137-0.823,0.034-1.783,0.034-1.783c0.069-0.137,1.954,2.846,1.954,2.846c1.097,1.577,5.176,5.519,5.176,5.519
		c-1.131,1.371-2.331,4.697-2.468,5.817c-0.137,1.12-0.754,1.794-0.926,2.24c-0.171,0.446-1.611,3.496-1.851,3.805
		c-0.514,1.783,0.891,1.44,0.891,1.44c0.24,0.103,4.103-6.445,4.103-6.445c0.571-1.989,0.697-0.103,0.697-0.103
		s0.479,1.406,0.446,3.104c-0.034,1.698,1.131,3.273,1.074,5.17c-0.058,1.897,0.375,1.463,0.375,1.463
		c0.283-0.823,0.47-0.514,0.47-0.514c0.034,0.72,1.577,1.509,1.577,1.509l0.103,1.68l0.446-0.137
		c0.069-1.92,2.057-5.257,2.057-5.257l2.057-3.725v4.251c-0.068,3.256,2.263,6.891,2.263,6.891c1.646,3.359,1.988,2.205,1.988,2.205
		c-0.391-0.47-2.846-5.628-2.846-5.628c-1.063-2.497-0.537-4.806-0.537-4.806c0.012,0.309,3.211,8.605,3.486,9.256
		c0.274,0.651,0.308,2.057,0.308,2.057c0.343,0.377,0.789-0.88,0.789-0.88c0.171-0.263,3.943-3.782,3.943-3.782
		c0.308-0.377,3.737-4.834,3.737-4.834c1.063-0.857-0.034,1.68-0.034,1.68c-0.72,2.537-0.023,6.937-0.023,6.937
		c-0.046,0.525,1.223,3.245,1.223,3.383c0,0.137-0.412,0.411-0.412,0.411s1.989,0,2.754,0c0.766,0,5.028-1.543,5.028-1.543
		c1.611-0.823,1.269,0.206,1.269,0.206c-0.583,0.446-1.509,2.297-1.612,2.434c-0.103,0.137-0.034,0.96-0.034,0.96l-1.771,3.051
		c-1.394,1.714-0.252,1.714-0.252,1.714c0.754-0.172,3.428-4.766,3.428-4.766c0.069,0.343,1.54,1.234,1.54,1.234
		s0.106,0.926,0,1.097c-0.105,0.171,0.86,0.188,0.86,0.188c0.686,1.628,0.72-0.497,0.72-0.497s2.674,0.343,3.497,0.172
		c0.823-0.172,3.154-0.96,3.154-0.96s-1.817,1.166-2.639,1.919c-0.823,0.754-1.989,1.44-1.989,1.44
		c-0.686,0.24-1.234,1.749-1.234,1.749c-2.469,2.777-3.468,6.514-3.468,6.514s-1.572,0.034-2.909,0.137
		c-1.337,0.103-3.223,0.823-3.257,1.456c-0.034,0.633,2.366,0.43,2.987,0.43c0.621,0,1.607,0.103,1.71,0.377
		c0.103,0.274-1.303,0.377-1.71,0.857c-0.407,0.48,0.373,0.72,0.51,0.805c0.137,0.086-2.743,1.32-3.359,1.628
		c-0.617,0.309-0.274,0.754-0.274,0.754s0.651-0.103,0.857-0.137c0.206-0.034,0.823-0.412,1.829-0.377
		c1.005,0.034,3.417-1.337,3.417-1.337c1.199-0.446,0.88,0.754,0.88,0.754s-6.194,2.777-6.365,2.772
		c-0.171-0.004,0.343,0.244,0.891,0.141c0.549-0.103,5.554-2.434,6.034-2.297s0.514,0.686,0.414,1.714
		c-0.101,1.028,1.3,0.441,1.3,0.441s1.611,1.753,1.851,1.753c0.24,0,3.428,2.092,3.326,2.331c-0.103,0.241-2.704-1.063-2.704-1.063
		v0.857c0,0,0.304,0.239,0.51,0.639c0.206,0.399,2.846,0.458,3.017,0.492s0,0,0.651,0.275c0.651,0.274-1.097,0.925-1.406,0.993
		c-0.548,0.137-4.731,1.474-5.039,1.371c-1.099,0.263-2.627,1-3.292,1.336l-1.885-1.73c0,0-2.788-1.81-1.508,0.201
		c0,0,4.982,4.827,4.982,5.613l2.011,2.495h-8.137c0,0-1.874-2.942-2.24-1.549c0,0,2.613,5.783,3.73,6.789
		c0,0-5.467-1.646-6.701-2.56c0,0-2.213-1.554-3.118-0.366c0,0-0.676,5.21-1.224,6.628c0,0-1.234,4.891-1.28,6.353
		c0,0-0.96-4.663-1.509-5.348c0,0-1.097-1.829-1.737-2.148c0,0-0.866-0.303,0.617,1.326c0,0,1.211,1.737,1.211,2.833
		c0,0-2.331-3.199-3.2-3.793l0.732-3.474c0,0,0.503-4.033-0.732-3.045c0,0,0.229,1.902-0.411,2.496c0,0-1.097-0.777-1.417,2.331
		c0,0-0.229,4.434-1.646,6.126l-0.411,0.365c0,0-0.732-10.148-4.663-9.553c0,0-1.006,0.275,2.011,5.943l1.051,3.703
		c0,0-1.6,0.457-2.103,0.274c0,0,0.343-0.549,0.766-0.731c0,0-0.08-1.052-1.452,0.548c0,0-2.331,3.337-2.971,8.593
		c0,0-0.091,0.686-0.274,0.594c-0.183-0.091-2.468-6.673-4.434-7.268c0,0,0.091-0.732-1.189,0l-1.919-0.549
		c0,0,1.325-2.86,4.982-6.504c0.411-0.261,1.417-1.038,1.234-2.044c0,0,1.006-2.056,0.686-2.696c0,0-0.691,0.274-0.962,1.508
		c0,0-0.82,1.692-2.603,2.88l-0.137-1.783c-0.411,0.411-0.457,1.692-0.777,2.422c-0.32,0.732-4.251,4.115-4.388,4.343
		c0,0,1.234-10.022,0.412-12.645c0,0-0.777-1.114-1.143,0.257l-0.32,10.148l-0.777,0.092c0,0-1.462,2.194-2.514,3.016
		c0,0-1.6,2.56-2.354,3.154c0,0-0.892,2.514-1.623,0.915c0,0-1.371-5.348-1.509-6.948c0,0-0.777,0.275-0.914-0.502
		c-0.137-0.777-0.823-1.188,0.731-2.331c0,0,4.297-3.429,5.303-3.337c0,0-0.823-1.307-5.12,2.181c0,0-6.628,4.767-7.542,4.538
		l1.371-3.976c0,0,1.554-4.845,1.6-5.257l-0.045-3.748c0,0,3.771-3.108,5.428-1.967c0,0,3.165,3.246,3.623,3.429
		c0,0,1.829,1.188,2.057,1.005c0,0-1.874-1.096-1.371-2.171c0,0,0.163-0.47-0.686,0c0,0-2.834-4.229-4.48-4.137
		c0,0-3.84,1.074-4.708,1.406c0,0-1.417,2.457-5.166,3.177c0,0-5.485-1.018-7.908-0.606c0,0-1.142-3.931,0.457-4.845
		c0,0,2.606-2.56,8.457-1.508c0,0,8.685-0.137,9.325-1.692l-1.692-0.319c0,0-3.839-4.902-4.297-9.765l0.549-0.429l-0.412-0.594
		c0,0,1.509-0.869,0.686-2.24c0,0-0.274,1.371-0.915,1.646l-0.503,0.457c0,0-0.366-5.942-0.137-7.679c0,0,0.183-4.343,2.102-4.891
		c0,0,0.32-1.576-1.371,0.378c0,0-0.823,1.541-0.777,1.153c0,0-0.091-2.947,0.777-4.639c0,0-1.234,1.234-1.325,2.4
		c0,0-0.298,3.828-0.538,5.748c0,0-0.103,7.783-0.206,7.919c0,0-4.834,0.538-7.028,2.412c0,0-0.96,0.743,0.994,1.6
		c0,0-1.851,1.881-0.411,3.255c0,0,3.665,2.134,5.246,2.554c-0.479-0.139-3.662-1.014-6.034-0.666c0,0-0.037-3.029-0.583-3.463
		c0,0,0.446,2.399-0.754,3.291c0,0-2.263,1.269-3.668,2.057c0,0-1.371-3.017-1.2-3.531c0,0,1.063,0.03,1.029-0.242
		C89.679,180.092,89.988,179.167,88.342,179.578z M160.542,171.145c0,0-3.223,0.411-3.84,0
		C158.039,171.327,159.582,170.014,160.542,171.145z M169.626,188.285c0,0-1.988-0.821-2.159-2.125h0.583l0.247,0.333
		c0.627,0.583,1.399,1.828,1.399,1.828l-0.072-0.04L169.626,188.285z M157.745,200.749h-0.621c0,0-2.762-1.418-3.692-2.117
		C153.432,198.631,156.658,199.563,157.745,200.749z M148.307,198.631c0,0,0,0,0-1.049s0.855-1.01,1.165-0.776
		C149.782,197.039,148.307,198.631,148.307,198.631z M147.064,212.73h-1.047c-0.464-2.602,0.464-7.845,0.464-7.845L147.064,212.73z
		 M138.248,206.555c0,0-0.511,2.175-0.916,2.253c-0.405,0.078-0.288-1.438-0.288-1.438S137.859,207.447,138.248,206.555z
		 M118.207,205.272c0,0-0.194,2.603-0.194,2.758s-1.398,0-1.398,0C117.042,207.72,118.207,205.272,118.207,205.272z M99.564,195.383
		c0.446,0.183,3.987-2.331,4.353-2.697c0.366-0.366-0.594,5.713-1.188,6.217c0,0-3.428-0.824-3.154-2.423
		C99.575,196.48,100.01,195.566,99.564,195.383z M95.964,195.977c0,0-1.051,2.011-2.651,1.965l-0.228-1.965H95.964z M96.625,176.459
		c-0.057,0.069-1.187-0.343-0.844-0.651c0.343-0.309,2.914-1.474,3.771-1.577C100.409,174.127,97.16,175.807,96.625,176.459z
		 M102.158,174.226c0,0,0.789,6.347,1.166,7.273c0,0-4.258-3.901-5.863-4.629C97.461,176.87,100.123,174.58,102.158,174.226z
		 M96.844,177.63c3.943,2.132,7.714,6.006,7.714,6.006c-1.783-2.251-2.087-9.577-2.087-9.577h0.304c0,1.954,3.36,9.577,3.36,9.577
		h-1.577l-1.2-0.184c-0.926-0.994-6.514-3.371-6.514-3.371C95.336,179.28,96.844,177.63,96.844,177.63z M177.854,205.782
		c0.525,2.491-2.789,5.005-2.789,5.005c-2.514,2.697-2.011,5.645-2.011,5.645c1.988,7.816,0,8.983,0,8.983
		c-0.96,1.92-5.828,5.416-5.828,5.416c-7.611,5.074-6.857,10.559-6.857,10.559c-1.919,9.874-5.691,10.216-6.034,10.56
		c-0.343,0.343-8.776,0.616-8.776,0.616c-6.239-0.411-12.204,8.776-12.204,8.776c-3.291,5.006-6.308,5.829-10.079,6.103
		c-3.771,0.275-10.833-5.21-10.833-5.21c-0.411-0.344-8.639-6.24-8.639-6.24c-1.234-1.097-6.445-2.811-14.124-2.674
		c-7.679,0.136-12.548-3.223-13.233-3.429c-5.485-3.976-4.526-8.434-2.88-13.644c1.646-5.211,6.514-9.531,8.845-10.696
		c2.331-1.166,5.006-3.635,7.281-6.171c2.275-2.537-0.15-10.285-0.013-12.616c0.128-2.184-0.766-5.031-0.88-5.38
		c0.269,0.054,0.519,0.134,0.674,0.26c0,0,0.731,0.96,2.285-0.777l0.915-0.96l1.097,0.502c0,0,2.56-2.925,3.154-2.971
		c0.594-0.045,2.469,1.783,3.063,1.875c0.594,0.091,2.925,0.777,1.737,2.239c0,0-2.423,2.88-1.646,4.48c0,0,0.183,0.777-0.32,1.554
		c0,0,0.137,1.875,1.919-0.091c0,0,2.469-2.423,3.611-2.423c0,0,1.6-1.325,2.011-1.143c0,0,0.823,0.32,0.777,2.057
		c0,0-1.92-0.64-0.549,0.732c0,0,1.554,1.371,1.509,3.976c0,0,1.234,2.925,1.28,3.566c0,0,0.777,0.274,1.097,0.96
		c0,0,1.234,0.64,1.829-1.143l2.194-4.16c0,0,1.508-0.274,1.691,1.463c0,0,1.097,0.502,1.234-0.641c0,0,1.234,0.915,1.646-0.411
		c0,0,0.823-1.873,3.291-0.457c0,0,3.611,4.936,3.611,6.948c0,0,0.96,1.234,1.051,1.92c0,0,0.32,2.377,1.006,1.965
		c0,0,0.777-0.32,1.005-0.686c0,0,0.366-2.011,0.549-3.84c0.183-1.828,1.6-7.724,2.377-8.045c0,0,2.606-1.188,2.56,0.777
		c0,0,0.386,3.017-0.401,4.525c0,0,0.813-0.685,1.178-1.188c0,0,0.887,0.713,1.702-1.811c0,0,1.437-5.127,2.408-5.476
		c0,0,3.34,4.078,3.845,6.992c0,0,0.466,2.835,1.359,2.524c0,0,1.554-0.116,2.253-0.467c0,0,0.699-1.281,0.078-2.757
		c0,0-0.35-11.03,0.854-11.807c0,0,1.282-1.514,4.272,0.272c0,0,5.01,2.603,5.282,2.603c0.272,0,0.932-0.311,1.515-0.078
		c0.583,0.233,1.087,0.543,1.126-0.116c0,0,1.281-0.544-0.622-3.224l-2.136-2.758c0,0,4.661-0.466,6.447-0.078
		c0,0-1.01-0.932-1.98-1.049l3.029-0.039c0,0,1.126-0.349,0-1.593l-1.942-2.22c0,0,1.165-0.808-0.311-1.508l-1.733-1.591h1.328
		c0.343-0.217,3.599-1.565,3.599-1.565c0.48,0.103,0.103,1.131,0.103,1.131c-0.857-0.48-1.131,0.435-1.131,0.435
		c-0.034,1.085,3.874,2.652,4.388,2.857c0.514,0.206,5.279,1.337,5.279,1.337l0.881,0.149l0.01,0.366l-0.24,0.583h-1.508
		c-0.24,1.543,1.097,1.954,1.097,1.954c-0.72,0.343-0.857,1.096-0.857,1.096c-0.069,1.269,1.303,1.132,1.303,1.132
		c0,0.926,0.377,1.714,0.343,2.228c-0.034,0.514-0.435,2.172-0.435,2.172C177.169,202.582,177.854,205.782,177.854,205.782z
		 M159.337,199.913c0,0,1.009,0.118,0.932,1.671C160.269,201.583,159.026,200.573,159.337,199.913z M175.215,190.206
		c-2.708-0.034-6.136-3.977-6.274-4.012l4.457-0.377l-0.137-0.651c0,0-1.886-0.378-2.023-0.446
		c-0.137-0.069,1.063-0.686,1.646-1.371c0.583-0.686,0.034-0.858,0.034-0.858s-1.131-0.446-2.194-0.926
		c-1.063-0.479-1.886-1.816-1.406-1.835c0.48-0.018,7.062,0.052,7.062,0.052c1.817-0.583,3.703,3.909,3.703,3.909l-0.926,0.274
		c-0.651,1.371,0.309,4.234,0.309,4.234C179.535,189.314,177.923,190.241,175.215,190.206z M180.035,187.258
		c0,0-0.515-1.611-0.148-2.194L180.035,187.258z M181.797,188.286c0.136,0.034,0.48,0.103,0.48,0.583c0,0.48-0.48,0.248-0.48,0.248
		S181.66,188.252,181.797,188.286z M180.7,191.268c0,0,0.171,0.48,0,0.549c-0.172,0.069-1.406-0.274-1.406-0.274
		S180.323,191.337,180.7,191.268z M183.683,155.384c0,0,1.508-11.242,1.645-11.38c0.137-0.137,0.503,0,0.503,0
		S184.46,153.965,183.683,155.384z"/>
	<path d="M167.775,186.194c0,0-0.091,1.134,1.848,2.086l-1.327-1.788C168.099,186.309,167.915,186.187,167.775,186.194z"/>
</g>
</svg>
